<svg width="312" height="38" viewBox="0 0 312 38" fill="none" xmlns="http://www.w3.org/2000/svg">
<circle cx="18.311" cy="18.8018" r="17.3378" fill="white"/>
<circle cx="18.311" cy="18.8018" r="17.3378" fill="url(#paint0_radial_347_1036)"/>
<path d="M4.34161 9.1423L10.3355 34.3564L23.2646 2.75208L25.2461 35.149L35.8964 16.8205" stroke="white" stroke-width="0.693512"/>
<circle cx="4.3912" cy="8.94399" r="2.72451" fill="white"/>
<circle cx="10.2364" cy="33.8114" r="2.72451" fill="white"/>
<circle cx="23.116" cy="3.09878" r="2.72451" fill="white"/>
<circle cx="25.0974" cy="34.9011" r="2.72451" fill="white"/>
<circle cx="35.6983" cy="16.5727" r="2.72451" fill="white"/>
<path d="M61.6501 31.13C61.1299 31.13 60.6857 30.9512 60.3172 30.5936C59.9596 30.2252 59.77 29.7755 59.7483 29.2445L59.602 9.72326C59.602 9.19229 59.7863 8.74259 60.1547 8.37416C60.5448 7.9949 60.9945 7.80527 61.5038 7.80527H69.1433C69.6742 7.80527 70.1239 7.98948 70.4924 8.35791C70.8608 8.72634 71.045 9.17604 71.045 9.70701C71.045 10.2271 70.8608 10.6768 70.4924 11.0561C70.1239 11.4245 69.6742 11.6087 69.1433 11.6087H63.4055L63.5518 29.212C63.541 29.7538 63.3568 30.2035 62.9992 30.5611C62.6416 30.9187 62.1973 31.1084 61.6663 31.13C61.6555 31.13 61.6501 31.13 61.6501 31.13ZM56.4487 11.6575C56.1887 11.6575 55.9286 11.5979 55.6685 11.4787C55.1809 11.2512 54.845 10.899 54.6608 10.4222C54.4874 9.9454 54.5091 9.45777 54.7258 8.95931C54.9533 8.48252 55.3001 8.15744 55.7661 7.98406C56.2428 7.79985 56.7305 7.81068 57.2289 8.01657C57.7166 8.25496 58.0471 8.61256 58.2204 9.08935C58.4047 9.5553 58.3884 10.0375 58.1717 10.536C57.7382 11.2837 57.1639 11.6575 56.4487 11.6575ZM75.9213 31C75.3903 31 74.9352 30.8158 74.5559 30.4474C74.1875 30.0681 74.0033 29.6076 74.0033 29.0658V9.57697C74.0033 9.03517 74.1875 8.58005 74.5559 8.21162C74.9352 7.83236 75.3903 7.64272 75.9213 7.64272C76.4631 7.64272 76.9182 7.83236 77.2866 8.21162C77.6659 8.58005 77.8555 9.03517 77.8555 9.57697V29.0658C77.8555 29.6076 77.6659 30.0681 77.2866 30.4474C76.9182 30.8158 76.4631 31 75.9213 31ZM86.714 31C86.1722 31 85.7117 30.8158 85.3324 30.4474C84.964 30.0681 84.7798 29.6076 84.7798 29.0658V9.57697C84.7798 9.03517 84.964 8.58005 85.3324 8.21162C85.7117 7.83236 86.1722 7.64272 86.714 7.64272C87.245 7.64272 87.6947 7.83236 88.0631 8.21162C88.4424 8.58005 88.632 9.03517 88.632 9.57697V29.0658C88.632 29.6076 88.4424 30.0681 88.0631 30.4474C87.6947 30.8158 87.245 31 86.714 31ZM81.3176 21.2475C80.7867 21.2475 80.3316 21.0633 79.9523 20.6948C79.5839 20.3156 79.3997 19.8605 79.3997 19.3295C79.3997 18.7877 79.5839 18.3326 79.9523 17.9641C80.3316 17.5849 80.7867 17.3952 81.3176 17.3952C81.8486 17.3952 82.3037 17.5849 82.683 17.9641C83.0623 18.3326 83.2519 18.7877 83.2519 19.3295C83.2519 19.8605 83.0623 20.3156 82.683 20.6948C82.3037 21.0633 81.8486 21.2475 81.3176 21.2475ZM108.283 11.56H95.8001C95.28 11.56 94.8357 11.3758 94.4673 11.0073C94.0989 10.6389 93.9146 10.1946 93.9146 9.6745C93.9146 9.15436 94.0989 8.71008 94.4673 8.34165C94.8357 7.97323 95.28 7.78901 95.8001 7.78901H108.283C108.803 7.78901 109.248 7.97323 109.616 8.34165C109.985 8.71008 110.169 9.15436 110.169 9.6745C110.169 10.1946 109.985 10.6389 109.616 11.0073C109.248 11.3758 108.803 11.56 108.283 11.56ZM106.365 20.4998H100.644C100.124 20.4998 99.6795 20.3156 99.311 19.9471C98.9426 19.5787 98.7584 19.1344 98.7584 18.6143C98.7584 18.0942 98.9426 17.6499 99.311 17.2815C99.6795 16.913 100.124 16.7288 100.644 16.7288H106.365C106.885 16.7288 107.33 16.913 107.698 17.2815C108.067 17.6499 108.251 18.0942 108.251 18.6143C108.251 19.1344 108.067 19.5787 107.698 19.9471C107.33 20.3156 106.885 20.4998 106.365 20.4998ZM95.8326 20.4998H95.8001C95.28 20.4998 94.8357 20.3156 94.4673 19.9471C94.0989 19.5787 93.9146 19.1344 93.9146 18.6143C93.9146 18.0942 94.0989 17.6499 94.4673 17.2815C94.8357 16.913 95.28 16.7288 95.8001 16.7288H95.8326C96.3528 16.7288 96.7971 16.913 97.1655 17.2815C97.5339 17.6499 97.7181 18.0942 97.7181 18.6143C97.7181 19.1344 97.5339 19.5787 97.1655 19.9471C96.7971 20.3156 96.3528 20.4998 95.8326 20.4998ZM108.283 31H95.8001C95.28 31 94.8357 30.8158 94.4673 30.4474C94.0989 30.0789 93.9146 29.6346 93.9146 29.1145C93.9146 28.5944 94.0989 28.1501 94.4673 27.7817C94.8357 27.4132 95.28 27.229 95.8001 27.229H108.283C108.803 27.229 109.248 27.4132 109.616 27.7817C109.985 28.1501 110.169 28.5944 110.169 29.1145C110.169 29.6346 109.985 30.0789 109.616 30.4474C109.248 30.8158 108.803 31 108.283 31ZM132.453 31.13C130.08 31.065 128.173 30.6207 126.732 29.7972C125.291 28.9736 124.24 28.1338 123.579 27.2778C122.137 25.5223 121.265 23.4851 120.962 21.1662C120.669 18.8364 120.994 16.5609 121.937 14.3395C123.877 10.1892 127.16 7.96781 131.787 7.67523C132.329 7.6644 132.784 7.83236 133.152 8.17911C133.532 8.52587 133.737 8.97015 133.77 9.51196C133.781 10.0538 133.613 10.5143 133.266 10.8936C132.919 11.262 132.475 11.4625 131.933 11.495C129.939 11.6575 128.439 12.2156 127.431 13.1691C126.423 14.1227 125.762 15.0275 125.448 15.8836C124.798 17.4115 124.57 18.9882 124.765 20.6136C124.96 22.2282 125.54 23.626 126.504 24.8072C128.574 27.2019 131.749 27.8684 136.029 26.8064C136.56 26.6872 137.042 26.7631 137.476 27.034C137.92 27.294 138.218 27.6841 138.37 28.2043C138.489 28.7352 138.413 29.2175 138.142 29.6509C137.882 30.0843 137.492 30.3769 136.972 30.5286C135.303 30.9296 133.797 31.13 132.453 31.13ZM136.078 12.7953C135.915 12.7953 135.753 12.7736 135.59 12.7303H135.558C135.059 12.5786 134.686 12.2914 134.436 11.8688C134.187 11.4354 134.122 10.9586 134.241 10.4384C134.393 9.93998 134.68 9.56614 135.103 9.31691C135.536 9.06767 136.013 9.00808 136.533 9.13811H136.549C137.059 9.28981 137.438 9.58239 137.687 10.0158C137.936 10.4384 137.996 10.9044 137.866 11.4137C137.747 11.8363 137.519 12.1722 137.183 12.4215C136.858 12.6707 136.49 12.7953 136.078 12.7953ZM156.217 31.13C155.426 31.13 154.83 30.6966 154.429 29.8297L154.413 29.7647C154.261 29.2554 154.299 28.7786 154.527 28.3343C154.754 27.8792 155.117 27.5649 155.616 27.3916C156.136 27.2399 156.618 27.2778 157.062 27.5053C157.506 27.7329 157.815 28.1013 157.989 28.6106L158.005 28.6757C158.157 29.1849 158.119 29.6617 157.891 30.106C157.664 30.5503 157.301 30.8591 156.802 31.0325C156.607 31.0975 156.412 31.13 156.217 31.13ZM143.067 31.0813C142.591 31.0813 142.152 30.9025 141.751 30.5449C141.22 29.9814 141.068 29.3312 141.296 28.5944L148.025 9.13811C148.415 8.29289 149.011 7.87028 149.813 7.87028C150.68 7.92446 151.27 8.35791 151.585 9.17062L156.445 23.8807C156.596 24.39 156.558 24.8722 156.331 25.3273C156.103 25.7716 155.74 26.0804 155.242 26.2538C154.732 26.4163 154.25 26.3838 153.795 26.1563C153.351 25.9287 153.042 25.5657 152.869 25.0672L149.764 15.6235L146.139 26.0912L149.569 24.8397C150.078 24.6771 150.555 24.7042 150.999 24.9209C151.454 25.1268 151.78 25.479 151.975 25.9775C152.148 26.4759 152.126 26.9527 151.91 27.4078C151.704 27.8629 151.352 28.188 150.853 28.3831L143.718 30.9675C143.501 31.0433 143.284 31.0813 143.067 31.0813ZM160.931 11.4462C160.281 11.4462 159.739 11.1428 159.305 10.536C159.034 10.0592 158.959 9.57697 159.078 9.08935C159.208 8.60172 159.5 8.21704 159.955 7.9353C160.421 7.67523 160.898 7.6048 161.386 7.72399C161.873 7.84319 162.258 8.13035 162.54 8.58547H162.556C162.816 9.05142 162.881 9.52821 162.751 10.0158C162.632 10.5035 162.345 10.8936 161.89 11.1861C161.575 11.3595 161.256 11.4462 160.931 11.4462ZM175.998 31C175.467 31 175.018 30.8158 174.649 30.4474C174.281 30.0789 174.097 29.6346 174.097 29.1145V16.5338L169.87 23.7506C169.491 24.3575 168.939 24.6717 168.213 24.6934C167.497 24.6609 166.956 24.3304 166.587 23.7019L161.565 14.6158C161.315 14.139 161.261 13.6622 161.402 13.1854C161.543 12.6978 161.841 12.3185 162.296 12.0476C162.773 11.7984 163.255 11.7442 163.743 11.8851C164.23 12.0259 164.61 12.3293 164.88 12.7953L168.294 18.9719L174.357 8.58547C174.866 7.8161 175.576 7.52353 176.486 7.70774C177.418 8.07617 177.884 8.68841 177.884 9.54446V29.1145C177.884 29.6346 177.7 30.0789 177.331 30.4474C176.963 30.8158 176.518 31 175.998 31ZM185.296 31C184.776 31 184.331 30.8158 183.963 30.4474C183.594 30.0789 183.41 29.6346 183.41 29.1145C183.41 28.5944 183.594 28.1501 183.963 27.7817C184.331 27.4132 184.776 27.229 185.296 27.229C185.816 27.229 186.26 27.4132 186.629 27.7817C186.997 28.1501 187.181 28.5944 187.181 29.1145C187.181 29.6346 186.997 30.0789 186.629 30.4474C186.26 30.8158 185.816 31 185.296 31ZM185.296 26.3838C184.776 26.3838 184.331 26.1996 183.963 25.8312C183.594 25.4627 183.41 25.0185 183.41 24.4983V21.0524C183.41 20.8574 183.437 20.6623 183.492 20.4673C183.589 20.1964 183.73 19.958 183.914 19.7521C184.109 19.5462 184.342 19.3891 184.613 19.2807C184.797 19.2157 184.987 19.1724 185.182 19.1507L189.245 18.8906C190.698 18.7498 191.716 18.3001 192.301 17.5415C192.897 16.7722 193.168 15.9324 193.114 15.0221C193.092 14.1227 192.789 13.2992 192.204 12.5515C191.629 11.8038 190.752 11.43 189.571 11.43C189.571 11.43 189.565 11.43 189.554 11.43L185.637 11.4625C185.095 11.4408 184.646 11.2566 184.288 10.9098C183.941 10.5522 183.757 10.1079 183.735 9.57697C183.746 9.046 183.93 8.60172 184.288 8.24413C184.646 7.88654 185.09 7.6969 185.621 7.67523L189.538 7.65898C189.549 7.65898 189.565 7.65898 189.587 7.65898C191.115 7.65898 192.415 8.01657 193.488 8.73175C194.561 9.44694 195.384 10.3572 195.958 11.4625C196.533 12.5569 196.847 13.7001 196.901 14.8921C196.977 16.7234 196.414 18.4138 195.211 19.9634C194.019 21.5021 192.112 22.4015 189.489 22.6616L187.181 22.8079V24.4983C187.181 25.0185 186.997 25.4627 186.629 25.8312C186.26 26.1996 185.816 26.3838 185.296 26.3838ZM207.938 31C207.884 31 207.829 31 207.775 31C205.749 30.935 204.021 30.1765 202.59 28.7244C201.203 27.2399 200.52 25.479 200.542 23.4418C200.564 22.9325 200.748 22.5045 201.095 22.1577C201.452 21.811 201.88 21.6376 202.379 21.6376C202.39 21.6376 202.401 21.6376 202.411 21.6376C202.932 21.6701 203.36 21.8651 203.695 22.2227C204.042 22.5695 204.216 23.0029 204.216 23.5231C204.205 24.5417 204.552 25.4248 205.256 26.1725C205.971 26.9094 206.838 27.294 207.857 27.3266C208.875 27.3374 209.758 26.9906 210.506 26.2863C211.232 25.5711 211.617 24.7096 211.66 23.7019V9.54446C211.66 9.03517 211.839 8.60172 212.196 8.24413C212.554 7.88654 212.987 7.70774 213.497 7.70774C214.006 7.70774 214.439 7.88654 214.797 8.24413C215.155 8.60172 215.333 9.03517 215.333 9.54446V23.7181C215.333 23.729 215.333 23.7452 215.333 23.7669C215.268 25.7932 214.51 27.5162 213.058 28.9357C211.563 30.3119 209.856 31 207.938 31ZM202.379 16.2412C201.87 16.2412 201.436 16.0624 201.079 15.7048C200.721 15.3472 200.542 14.9138 200.542 14.4045V9.72326C200.542 9.21396 200.721 8.78052 201.079 8.42292C201.436 8.06533 201.87 7.88654 202.379 7.88654C202.888 7.88654 203.322 8.06533 203.679 8.42292C204.037 8.78052 204.216 9.21396 204.216 9.72326V14.4045C204.216 14.9138 204.037 15.3472 203.679 15.7048C203.322 16.0624 202.888 16.2412 202.379 16.2412ZM202.379 20.7761C201.87 20.7761 201.436 20.5973 201.079 20.2397C200.721 19.8821 200.542 19.4487 200.542 18.9394V18.9231C200.542 18.4138 200.721 17.9804 201.079 17.6228C201.436 17.2652 201.87 17.0864 202.379 17.0864C202.888 17.0864 203.322 17.2652 203.679 17.6228C204.037 17.9804 204.216 18.4138 204.216 18.9231V18.9394C204.216 19.4487 204.037 19.8821 203.679 20.2397C203.322 20.5973 202.888 20.7761 202.379 20.7761ZM223.135 18.8256C222.832 18.8256 222.534 18.7389 222.242 18.5655C220.844 17.6445 219.966 16.42 219.608 14.8921C219.262 13.3642 219.511 11.8851 220.356 10.4547C221.277 9.05684 222.502 8.18453 224.029 7.83777C225.557 7.48018 227.036 7.72399 228.467 8.56921C228.879 8.82928 229.133 9.18145 229.231 9.62573C229.328 10.07 229.258 10.498 229.02 10.9098C228.749 11.3108 228.391 11.5654 227.947 11.6738C227.513 11.7713 227.091 11.6954 226.679 11.4462C226.072 11.0886 225.444 10.9857 224.793 11.1374C224.143 11.2891 223.623 11.6575 223.233 12.2427C222.886 12.8603 222.783 13.4942 222.924 14.1444C223.076 14.7837 223.45 15.2984 224.046 15.6885C224.447 15.9486 224.696 16.3008 224.793 16.7451C224.902 17.1785 224.831 17.6065 224.582 18.0292C224.192 18.5601 223.71 18.8256 223.135 18.8256ZM226.744 31C225.682 31 224.647 30.702 223.639 30.106C223.228 29.846 222.973 29.4992 222.875 29.0658C222.778 28.6215 222.848 28.188 223.087 27.7654C223.358 27.3645 223.71 27.1152 224.143 27.0177C224.588 26.9094 225.016 26.9798 225.427 27.229C226.034 27.5866 226.663 27.6896 227.313 27.5379C227.963 27.3862 228.478 27.0177 228.857 26.4326C229.215 25.8257 229.318 25.2027 229.166 24.5633C229.025 23.9132 228.656 23.393 228.061 23.0029C227.66 22.732 227.405 22.3799 227.297 21.9464C227.199 21.5021 227.275 21.0741 227.524 20.6623C227.784 20.2614 228.136 20.0122 228.581 19.9146C229.025 19.8063 229.453 19.8713 229.865 20.1097C231.263 21.0308 232.135 22.2552 232.482 23.7831C232.839 25.311 232.595 26.7902 231.75 28.2205C231.176 29.1199 230.444 29.808 229.556 30.2848C228.667 30.7616 227.73 31 226.744 31ZM225.931 21.2475C225.671 21.2475 225.416 21.1879 225.167 21.0687C224.745 20.8411 224.463 20.516 224.322 20.0934C224.181 19.66 224.208 19.2211 224.403 18.7768C224.631 18.3542 224.956 18.0725 225.379 17.9316C225.812 17.7908 226.251 17.8233 226.695 18.0292C227.118 18.2567 227.4 18.5872 227.54 19.0207C227.692 19.4433 227.665 19.8713 227.459 20.3047C227.069 20.9332 226.56 21.2475 225.931 21.2475ZM251.467 31.13C250.676 31.13 250.09 30.7237 249.711 29.911L242.543 10.4547C242.37 9.9454 242.386 9.46861 242.592 9.02433C242.808 8.56921 243.166 8.23871 243.665 8.03282C244.163 7.87028 244.64 7.89195 245.095 8.09784C245.55 8.30373 245.875 8.6559 246.07 9.15436L251.467 23.8156L254.766 14.8108L253.043 10.1134C252.87 9.6149 252.886 9.13811 253.092 8.68299C253.309 8.22787 253.661 7.90279 254.148 7.70774C254.658 7.53436 255.135 7.55603 255.579 7.77276C256.034 7.97864 256.359 8.3254 256.554 8.81303L261.951 23.4906L265.559 13.673C265.754 13.1854 266.074 12.8386 266.518 12.6328C266.973 12.416 267.455 12.3944 267.965 12.5677C268.452 12.7628 268.799 13.0879 269.005 13.543C269.222 13.9873 269.243 14.4641 269.07 14.9734L263.722 29.5696C263.397 30.3498 262.812 30.7616 261.967 30.8049C261.176 30.8049 260.585 30.3932 260.195 29.5696L256.765 20.2397L253.222 29.8947C252.897 30.6749 252.312 31.0867 251.467 31.13ZM268.989 11.6413C268.696 11.6413 268.403 11.5708 268.111 11.43C267.656 11.1699 267.352 10.8015 267.201 10.3247C267.06 9.84788 267.103 9.37109 267.331 8.8943C267.602 8.42834 267.975 8.12493 268.452 7.98406C268.929 7.83236 269.4 7.8757 269.866 8.11409C270.332 8.37416 270.636 8.74259 270.777 9.21938C270.928 9.69617 270.89 10.1675 270.663 10.6335L270.647 10.6497C270.213 11.3108 269.66 11.6413 268.989 11.6413ZM288.185 11.56H275.702C275.181 11.56 274.737 11.3758 274.369 11.0073C274 10.6389 273.816 10.1946 273.816 9.6745C273.816 9.15436 274 8.71008 274.369 8.34165C274.737 7.97323 275.181 7.78901 275.702 7.78901H288.185C288.705 7.78901 289.149 7.97323 289.518 8.34165C289.886 8.71008 290.07 9.15436 290.07 9.6745C290.07 10.1946 289.886 10.6389 289.518 11.0073C289.149 11.3758 288.705 11.56 288.185 11.56ZM286.267 20.4998H280.545C280.025 20.4998 279.581 20.3156 279.212 19.9471C278.844 19.5787 278.66 19.1344 278.66 18.6143C278.66 18.0942 278.844 17.6499 279.212 17.2815C279.581 16.913 280.025 16.7288 280.545 16.7288H286.267C286.787 16.7288 287.231 16.913 287.6 17.2815C287.968 17.6499 288.152 18.0942 288.152 18.6143C288.152 19.1344 287.968 19.5787 287.6 19.9471C287.231 20.3156 286.787 20.4998 286.267 20.4998ZM275.734 20.4998H275.702C275.181 20.4998 274.737 20.3156 274.369 19.9471C274 19.5787 273.816 19.1344 273.816 18.6143C273.816 18.0942 274 17.6499 274.369 17.2815C274.737 16.913 275.181 16.7288 275.702 16.7288H275.734C276.254 16.7288 276.698 16.913 277.067 17.2815C277.435 17.6499 277.62 18.0942 277.62 18.6143C277.62 19.1344 277.435 19.5787 277.067 19.9471C276.698 20.3156 276.254 20.4998 275.734 20.4998ZM288.185 31H275.702C275.181 31 274.737 30.8158 274.369 30.4474C274 30.0789 273.816 29.6346 273.816 29.1145C273.816 28.5944 274 28.1501 274.369 27.7817C274.737 27.4132 275.181 27.229 275.702 27.229H288.185C288.705 27.229 289.149 27.4132 289.518 27.7817C289.886 28.1501 290.07 28.5944 290.07 29.1145C290.07 29.6346 289.886 30.0789 289.518 30.4474C289.149 30.8158 288.705 31 288.185 31ZM300.538 31.13C299.66 31.13 298.793 31.1029 297.937 31.0488C297.211 31.0054 296.539 30.9837 295.922 30.9837C295.716 30.9729 295.515 30.935 295.32 30.87C295.039 30.7724 294.8 30.6207 294.605 30.4148C294.605 30.4148 294.6 30.4148 294.589 30.4148C294.405 30.2198 294.269 29.9922 294.183 29.7322C294.172 29.7322 294.166 29.7322 294.166 29.7322C294.101 29.5371 294.069 29.3312 294.069 29.1145L294.101 18.6793C294.112 18.2134 294.258 17.8178 294.54 17.4928C294.822 17.1568 295.18 16.9455 295.613 16.8589C295.71 16.8372 295.808 16.8263 295.906 16.8263C295.906 16.8263 295.911 16.8263 295.922 16.8263C295.933 16.8263 295.949 16.8263 295.971 16.8263C296.523 16.8155 297.125 16.7938 297.775 16.7613C298.945 16.6746 300.175 16.6638 301.464 16.7288C302.765 15.8511 303.328 14.8433 303.155 13.7055C302.851 12.5027 301.855 11.793 300.164 11.5762H295.922C295.412 11.5762 294.974 11.3974 294.605 11.0398C294.248 10.6714 294.069 10.2271 294.069 9.70701C294.069 9.19771 294.248 8.76426 294.605 8.40667C294.974 8.03824 295.412 7.85403 295.922 7.85403H300.262C300.316 7.85403 300.37 7.85403 300.424 7.85403C303.935 8.30915 306.059 10.0213 306.796 12.9904C307.099 14.735 306.715 16.3496 305.642 17.8341C306.184 18.1267 306.687 18.5005 307.153 18.9556C307.522 19.3349 307.706 19.7738 307.706 20.2722C307.717 20.7599 307.544 21.1987 307.186 21.5888C306.818 21.9573 306.384 22.1469 305.886 22.1577C305.387 22.1577 304.948 21.9789 304.569 21.6213C303.908 21.0253 303.057 20.6623 302.017 20.5323C301.941 20.5431 301.865 20.5486 301.79 20.5486H297.824L297.791 27.3103C297.899 27.3211 298.008 27.3266 298.116 27.3266C299.265 27.4024 300.397 27.4241 301.513 27.3916C302.629 27.3482 303.55 27.1261 304.276 26.7251C304.732 26.4651 305.198 26.3946 305.674 26.5138C306.162 26.633 306.547 26.9148 306.828 27.3591C307.088 27.8142 307.159 28.2855 307.04 28.7732C306.92 29.25 306.639 29.6292 306.194 29.911C305.371 30.3986 304.471 30.7237 303.496 30.8862C302.521 31.0488 301.535 31.13 300.538 31.13ZM307.495 26.4813C307.311 26.4813 307.132 26.4597 306.958 26.4163C306.46 26.2538 306.091 25.9558 305.853 25.5223C305.615 25.0781 305.566 24.6013 305.707 24.092C305.869 23.5935 306.167 23.2251 306.601 22.9867C307.034 22.7483 307.506 22.6995 308.015 22.8404C308.513 23.0029 308.882 23.3009 309.12 23.7344C309.359 24.1678 309.407 24.6392 309.266 25.1485V25.1647C308.887 26.0425 308.297 26.4813 307.495 26.4813Z" fill="white"/>
<defs>
<radialGradient id="paint0_radial_347_1036" cx="0" cy="0" r="1" gradientUnits="userSpaceOnUse" gradientTransform="translate(0.973145 1.46399) rotate(23.6389) scale(38.1999 154.862)">
<stop stop-color="#0094FF"/>
<stop offset="1" stop-color="#8800FF"/>
</radialGradient>
</defs>
</svg>
