<svg width="248" height="164" viewBox="0 0 248 164" fill="none" xmlns="http://www.w3.org/2000/svg">
<circle cx="119.963" cy="54.291" r="50.463" fill="white"/>
<circle cx="119.963" cy="54.291" r="50.463" fill="url(#paint0_radial_43_384)"/>
<path d="M79.3041 26.176L96.7499 99.5635L134.381 7.57675L140.148 101.87L171.147 48.5238" stroke="white" stroke-width="2.01852"/>
<circle cx="79.4484" cy="25.5992" r="7.92989" fill="white"/>
<circle cx="96.4616" cy="97.9775" r="7.92989" fill="white"/>
<circle cx="133.948" cy="8.58599" r="7.92989" fill="white"/>
<circle cx="139.716" cy="101.149" r="7.92989" fill="white"/>
<circle cx="170.57" cy="47.8029" r="7.92989" fill="white"/>
<path d="M7.82812 156.204C7.32812 156.204 6.90104 156.033 6.54688 155.689C6.20312 155.335 6.02083 154.902 6 154.392L5.85938 135.626C5.85938 135.116 6.03646 134.684 6.39062 134.329C6.76562 133.965 7.19792 133.783 7.6875 133.783H15.0312C15.5417 133.783 15.974 133.96 16.3281 134.314C16.6823 134.668 16.8594 135.1 16.8594 135.611C16.8594 136.111 16.6823 136.543 16.3281 136.908C15.974 137.262 15.5417 137.439 15.0312 137.439H9.51562L9.65625 154.361C9.64583 154.881 9.46875 155.314 9.125 155.658C8.78125 156.001 8.35417 156.184 7.84375 156.204C7.83333 156.204 7.82812 156.204 7.82812 156.204ZM2.82812 137.486C2.57812 137.486 2.32812 137.428 2.07812 137.314C1.60938 137.095 1.28646 136.756 1.10938 136.298C0.942708 135.84 0.963542 135.371 1.17188 134.892C1.39062 134.434 1.72396 134.121 2.17188 133.954C2.63021 133.777 3.09896 133.788 3.57812 133.986C4.04688 134.215 4.36458 134.559 4.53125 135.017C4.70833 135.465 4.69271 135.928 4.48438 136.408C4.06771 137.126 3.51562 137.486 2.82812 137.486ZM21.5469 156.079C21.0365 156.079 20.599 155.902 20.2344 155.548C19.8802 155.184 19.7031 154.741 19.7031 154.22V135.486C19.7031 134.965 19.8802 134.527 20.2344 134.173C20.599 133.809 21.0365 133.626 21.5469 133.626C22.0677 133.626 22.5052 133.809 22.8594 134.173C23.224 134.527 23.4062 134.965 23.4062 135.486V154.22C23.4062 154.741 23.224 155.184 22.8594 155.548C22.5052 155.902 22.0677 156.079 21.5469 156.079ZM31.9219 156.079C31.401 156.079 30.9583 155.902 30.5938 155.548C30.2396 155.184 30.0625 154.741 30.0625 154.22V135.486C30.0625 134.965 30.2396 134.527 30.5938 134.173C30.9583 133.809 31.401 133.626 31.9219 133.626C32.4323 133.626 32.8646 133.809 33.2188 134.173C33.5833 134.527 33.7656 134.965 33.7656 135.486V154.22C33.7656 154.741 33.5833 155.184 33.2188 155.548C32.8646 155.902 32.4323 156.079 31.9219 156.079ZM26.7344 146.704C26.224 146.704 25.7865 146.527 25.4219 146.173C25.0677 145.809 24.8906 145.371 24.8906 144.861C24.8906 144.34 25.0677 143.902 25.4219 143.548C25.7865 143.184 26.224 143.001 26.7344 143.001C27.2448 143.001 27.6823 143.184 28.0469 143.548C28.4115 143.902 28.5938 144.34 28.5938 144.861C28.5938 145.371 28.4115 145.809 28.0469 146.173C27.6823 146.527 27.2448 146.704 26.7344 146.704ZM52.6562 137.392H40.6562C40.1562 137.392 39.7292 137.215 39.375 136.861C39.0208 136.506 38.8438 136.079 38.8438 135.579C38.8438 135.079 39.0208 134.652 39.375 134.298C39.7292 133.944 40.1562 133.767 40.6562 133.767H52.6562C53.1562 133.767 53.5833 133.944 53.9375 134.298C54.2917 134.652 54.4688 135.079 54.4688 135.579C54.4688 136.079 54.2917 136.506 53.9375 136.861C53.5833 137.215 53.1562 137.392 52.6562 137.392ZM50.8125 145.986H45.3125C44.8125 145.986 44.3854 145.809 44.0312 145.454C43.6771 145.1 43.5 144.673 43.5 144.173C43.5 143.673 43.6771 143.246 44.0312 142.892C44.3854 142.538 44.8125 142.361 45.3125 142.361H50.8125C51.3125 142.361 51.7396 142.538 52.0938 142.892C52.4479 143.246 52.625 143.673 52.625 144.173C52.625 144.673 52.4479 145.1 52.0938 145.454C51.7396 145.809 51.3125 145.986 50.8125 145.986ZM40.6875 145.986H40.6562C40.1562 145.986 39.7292 145.809 39.375 145.454C39.0208 145.1 38.8438 144.673 38.8438 144.173C38.8438 143.673 39.0208 143.246 39.375 142.892C39.7292 142.538 40.1562 142.361 40.6562 142.361H40.6875C41.1875 142.361 41.6146 142.538 41.9688 142.892C42.3229 143.246 42.5 143.673 42.5 144.173C42.5 144.673 42.3229 145.1 41.9688 145.454C41.6146 145.809 41.1875 145.986 40.6875 145.986ZM52.6562 156.079H40.6562C40.1562 156.079 39.7292 155.902 39.375 155.548C39.0208 155.194 38.8438 154.767 38.8438 154.267C38.8438 153.767 39.0208 153.34 39.375 152.986C39.7292 152.631 40.1562 152.454 40.6562 152.454H52.6562C53.1562 152.454 53.5833 152.631 53.9375 152.986C54.2917 153.34 54.4688 153.767 54.4688 154.267C54.4688 154.767 54.2917 155.194 53.9375 155.548C53.5833 155.902 53.1562 156.079 52.6562 156.079ZM75.8906 156.204C73.6094 156.142 71.776 155.715 70.3906 154.923C69.0052 154.131 67.9948 153.324 67.3594 152.501C65.974 150.814 65.1354 148.855 64.8438 146.626C64.5625 144.387 64.875 142.199 65.7812 140.064C67.6458 136.074 70.8021 133.939 75.25 133.658C75.7708 133.647 76.2083 133.809 76.5625 134.142C76.9271 134.475 77.125 134.902 77.1562 135.423C77.1667 135.944 77.0052 136.387 76.6719 136.751C76.3385 137.105 75.9115 137.298 75.3906 137.329C73.474 137.486 72.0312 138.022 71.0625 138.939C70.0938 139.855 69.4583 140.725 69.1562 141.548C68.5312 143.017 68.3125 144.533 68.5 146.095C68.6875 147.647 69.2448 148.991 70.1719 150.126C72.1615 152.428 75.2135 153.069 79.3281 152.048C79.8385 151.934 80.3021 152.006 80.7188 152.267C81.1458 152.517 81.4323 152.892 81.5781 153.392C81.6927 153.902 81.6198 154.366 81.3594 154.783C81.1094 155.199 80.7344 155.48 80.2344 155.626C78.6302 156.012 77.1823 156.204 75.8906 156.204ZM79.375 138.579C79.2188 138.579 79.0625 138.559 78.9062 138.517H78.875C78.3958 138.371 78.0365 138.095 77.7969 137.689C77.5573 137.272 77.4948 136.814 77.6094 136.314C77.7552 135.835 78.0312 135.475 78.4375 135.236C78.8542 134.996 79.3125 134.939 79.8125 135.064H79.8281C80.3177 135.21 80.6823 135.491 80.9219 135.908C81.1615 136.314 81.2188 136.762 81.0938 137.251C80.9792 137.658 80.7604 137.98 80.4375 138.22C80.125 138.46 79.7708 138.579 79.375 138.579ZM98.7344 156.204C97.974 156.204 97.401 155.788 97.0156 154.954L97 154.892C96.8542 154.402 96.8906 153.944 97.1094 153.517C97.3281 153.079 97.6771 152.777 98.1562 152.611C98.6562 152.465 99.1198 152.501 99.5469 152.72C99.974 152.939 100.271 153.293 100.438 153.783L100.453 153.845C100.599 154.335 100.562 154.793 100.344 155.22C100.125 155.647 99.776 155.944 99.2969 156.111C99.1094 156.173 98.9219 156.204 98.7344 156.204ZM86.0938 156.158C85.6354 156.158 85.2135 155.986 84.8281 155.642C84.3177 155.1 84.1719 154.475 84.3906 153.767L90.8594 135.064C91.2344 134.251 91.8073 133.845 92.5781 133.845C93.4115 133.897 93.9792 134.314 94.2812 135.095L98.9531 149.236C99.099 149.725 99.0625 150.189 98.8438 150.626C98.625 151.053 98.276 151.35 97.7969 151.517C97.3073 151.673 96.8438 151.642 96.4062 151.423C95.9792 151.204 95.6823 150.855 95.5156 150.376L92.5312 141.298L89.0469 151.361L92.3438 150.158C92.8333 150.001 93.2917 150.027 93.7188 150.236C94.1562 150.434 94.4688 150.772 94.6562 151.251C94.8229 151.73 94.8021 152.189 94.5938 152.626C94.3958 153.064 94.0573 153.376 93.5781 153.564L86.7188 156.048C86.5104 156.121 86.3021 156.158 86.0938 156.158ZM103.266 137.283C102.641 137.283 102.12 136.991 101.703 136.408C101.443 135.949 101.37 135.486 101.484 135.017C101.609 134.548 101.891 134.178 102.328 133.908C102.776 133.658 103.234 133.59 103.703 133.704C104.172 133.819 104.542 134.095 104.812 134.533H104.828C105.078 134.98 105.141 135.439 105.016 135.908C104.901 136.376 104.625 136.751 104.188 137.033C103.885 137.199 103.578 137.283 103.266 137.283ZM117.75 156.079C117.24 156.079 116.807 155.902 116.453 155.548C116.099 155.194 115.922 154.767 115.922 154.267V142.173L111.859 149.111C111.495 149.694 110.964 149.996 110.266 150.017C109.578 149.986 109.057 149.668 108.703 149.064L103.875 140.329C103.635 139.871 103.583 139.413 103.719 138.954C103.854 138.486 104.141 138.121 104.578 137.861C105.036 137.621 105.5 137.569 105.969 137.704C106.438 137.84 106.802 138.131 107.062 138.579L110.344 144.517L116.172 134.533C116.661 133.793 117.344 133.512 118.219 133.689C119.115 134.043 119.562 134.631 119.562 135.454V154.267C119.562 154.767 119.385 155.194 119.031 155.548C118.677 155.902 118.25 156.079 117.75 156.079ZM126.688 156.079C126.188 156.079 125.76 155.902 125.406 155.548C125.052 155.194 124.875 154.767 124.875 154.267C124.875 153.767 125.052 153.34 125.406 152.986C125.76 152.631 126.188 152.454 126.688 152.454C127.188 152.454 127.615 152.631 127.969 152.986C128.323 153.34 128.5 153.767 128.5 154.267C128.5 154.767 128.323 155.194 127.969 155.548C127.615 155.902 127.188 156.079 126.688 156.079ZM126.688 151.642C126.188 151.642 125.76 151.465 125.406 151.111C125.052 150.756 124.875 150.329 124.875 149.829V146.517C124.875 146.329 124.901 146.142 124.953 145.954C125.047 145.694 125.182 145.465 125.359 145.267C125.547 145.069 125.771 144.918 126.031 144.814C126.208 144.751 126.391 144.71 126.578 144.689L130.484 144.439C131.88 144.303 132.859 143.871 133.422 143.142C133.995 142.402 134.255 141.595 134.203 140.72C134.182 139.855 133.891 139.064 133.328 138.345C132.776 137.626 131.932 137.267 130.797 137.267C130.797 137.267 130.792 137.267 130.781 137.267L127.016 137.298C126.495 137.277 126.062 137.1 125.719 136.767C125.385 136.423 125.208 135.996 125.188 135.486C125.198 134.975 125.375 134.548 125.719 134.204C126.062 133.861 126.49 133.678 127 133.658L130.766 133.642C130.776 133.642 130.792 133.642 130.812 133.642C132.281 133.642 133.531 133.986 134.562 134.673C135.594 135.361 136.385 136.236 136.938 137.298C137.49 138.35 137.792 139.449 137.844 140.595C137.917 142.355 137.375 143.98 136.219 145.47C135.073 146.949 133.24 147.814 130.719 148.064L128.5 148.204V149.829C128.5 150.329 128.323 150.756 127.969 151.111C127.615 151.465 127.188 151.642 126.688 151.642ZM148.453 156.079C148.401 156.079 148.349 156.079 148.297 156.079C146.349 156.017 144.688 155.288 143.312 153.892C141.979 152.465 141.323 150.772 141.344 148.814C141.365 148.324 141.542 147.913 141.875 147.579C142.219 147.246 142.63 147.079 143.109 147.079C143.12 147.079 143.13 147.079 143.141 147.079C143.641 147.111 144.052 147.298 144.375 147.642C144.708 147.975 144.875 148.392 144.875 148.892C144.865 149.871 145.198 150.72 145.875 151.439C146.562 152.147 147.396 152.517 148.375 152.548C149.354 152.559 150.203 152.225 150.922 151.548C151.62 150.861 151.99 150.033 152.031 149.064V135.454C152.031 134.965 152.203 134.548 152.547 134.204C152.891 133.861 153.307 133.689 153.797 133.689C154.286 133.689 154.703 133.861 155.047 134.204C155.391 134.548 155.562 134.965 155.562 135.454V149.079C155.562 149.09 155.562 149.105 155.562 149.126C155.5 151.074 154.771 152.73 153.375 154.095C151.938 155.418 150.297 156.079 148.453 156.079ZM143.109 141.892C142.62 141.892 142.203 141.72 141.859 141.376C141.516 141.033 141.344 140.616 141.344 140.126V135.626C141.344 135.137 141.516 134.72 141.859 134.376C142.203 134.033 142.62 133.861 143.109 133.861C143.599 133.861 144.016 134.033 144.359 134.376C144.703 134.72 144.875 135.137 144.875 135.626V140.126C144.875 140.616 144.703 141.033 144.359 141.376C144.016 141.72 143.599 141.892 143.109 141.892ZM143.109 146.251C142.62 146.251 142.203 146.079 141.859 145.736C141.516 145.392 141.344 144.975 141.344 144.486V144.47C141.344 143.98 141.516 143.564 141.859 143.22C142.203 142.876 142.62 142.704 143.109 142.704C143.599 142.704 144.016 142.876 144.359 143.22C144.703 143.564 144.875 143.98 144.875 144.47V144.486C144.875 144.975 144.703 145.392 144.359 145.736C144.016 146.079 143.599 146.251 143.109 146.251ZM163.062 144.376C162.771 144.376 162.484 144.293 162.203 144.126C160.859 143.241 160.016 142.064 159.672 140.595C159.339 139.126 159.578 137.704 160.391 136.329C161.276 134.986 162.453 134.147 163.922 133.814C165.391 133.47 166.812 133.704 168.188 134.517C168.583 134.767 168.828 135.105 168.922 135.533C169.016 135.96 168.948 136.371 168.719 136.767C168.458 137.152 168.115 137.397 167.688 137.501C167.271 137.595 166.865 137.522 166.469 137.283C165.885 136.939 165.281 136.84 164.656 136.986C164.031 137.131 163.531 137.486 163.156 138.048C162.823 138.642 162.724 139.251 162.859 139.876C163.005 140.491 163.365 140.986 163.938 141.361C164.323 141.611 164.562 141.949 164.656 142.376C164.76 142.793 164.693 143.204 164.453 143.611C164.078 144.121 163.615 144.376 163.062 144.376ZM166.531 156.079C165.51 156.079 164.516 155.793 163.547 155.22C163.151 154.97 162.906 154.637 162.812 154.22C162.719 153.793 162.786 153.376 163.016 152.97C163.276 152.585 163.615 152.345 164.031 152.251C164.458 152.147 164.87 152.215 165.266 152.454C165.849 152.798 166.453 152.897 167.078 152.751C167.703 152.605 168.198 152.251 168.562 151.689C168.906 151.105 169.005 150.506 168.859 149.892C168.724 149.267 168.37 148.767 167.797 148.392C167.411 148.131 167.167 147.793 167.062 147.376C166.969 146.949 167.042 146.538 167.281 146.142C167.531 145.756 167.87 145.517 168.297 145.423C168.724 145.319 169.135 145.381 169.531 145.611C170.875 146.496 171.714 147.673 172.047 149.142C172.391 150.611 172.156 152.033 171.344 153.408C170.792 154.272 170.089 154.934 169.234 155.392C168.38 155.85 167.479 156.079 166.531 156.079ZM165.75 146.704C165.5 146.704 165.255 146.647 165.016 146.533C164.609 146.314 164.339 146.001 164.203 145.595C164.068 145.178 164.094 144.756 164.281 144.329C164.5 143.923 164.812 143.652 165.219 143.517C165.635 143.381 166.057 143.413 166.484 143.611C166.891 143.829 167.161 144.147 167.297 144.564C167.443 144.97 167.417 145.381 167.219 145.798C166.844 146.402 166.354 146.704 165.75 146.704ZM190.297 156.204C189.536 156.204 188.974 155.814 188.609 155.033L181.719 136.329C181.552 135.84 181.568 135.381 181.766 134.954C181.974 134.517 182.318 134.199 182.797 134.001C183.276 133.845 183.734 133.866 184.172 134.064C184.609 134.262 184.922 134.6 185.109 135.079L190.297 149.173L193.469 140.517L191.812 136.001C191.646 135.522 191.661 135.064 191.859 134.626C192.068 134.189 192.406 133.876 192.875 133.689C193.365 133.522 193.823 133.543 194.25 133.751C194.688 133.949 195 134.283 195.188 134.751L200.375 148.861L203.844 139.423C204.031 138.954 204.339 138.621 204.766 138.423C205.203 138.215 205.667 138.194 206.156 138.361C206.625 138.548 206.958 138.861 207.156 139.298C207.365 139.725 207.385 140.184 207.219 140.673L202.078 154.704C201.766 155.454 201.203 155.85 200.391 155.892C199.63 155.892 199.062 155.496 198.688 154.704L195.391 145.736L191.984 155.017C191.672 155.767 191.109 156.163 190.297 156.204ZM207.141 137.47C206.859 137.47 206.578 137.402 206.297 137.267C205.859 137.017 205.568 136.663 205.422 136.204C205.286 135.746 205.328 135.288 205.547 134.829C205.807 134.381 206.167 134.09 206.625 133.954C207.083 133.809 207.536 133.85 207.984 134.079C208.432 134.329 208.724 134.684 208.859 135.142C209.005 135.6 208.969 136.053 208.75 136.501L208.734 136.517C208.318 137.152 207.786 137.47 207.141 137.47ZM225.594 137.392H213.594C213.094 137.392 212.667 137.215 212.312 136.861C211.958 136.506 211.781 136.079 211.781 135.579C211.781 135.079 211.958 134.652 212.312 134.298C212.667 133.944 213.094 133.767 213.594 133.767H225.594C226.094 133.767 226.521 133.944 226.875 134.298C227.229 134.652 227.406 135.079 227.406 135.579C227.406 136.079 227.229 136.506 226.875 136.861C226.521 137.215 226.094 137.392 225.594 137.392ZM223.75 145.986H218.25C217.75 145.986 217.323 145.809 216.969 145.454C216.615 145.1 216.438 144.673 216.438 144.173C216.438 143.673 216.615 143.246 216.969 142.892C217.323 142.538 217.75 142.361 218.25 142.361H223.75C224.25 142.361 224.677 142.538 225.031 142.892C225.385 143.246 225.562 143.673 225.562 144.173C225.562 144.673 225.385 145.1 225.031 145.454C224.677 145.809 224.25 145.986 223.75 145.986ZM213.625 145.986H213.594C213.094 145.986 212.667 145.809 212.312 145.454C211.958 145.1 211.781 144.673 211.781 144.173C211.781 143.673 211.958 143.246 212.312 142.892C212.667 142.538 213.094 142.361 213.594 142.361H213.625C214.125 142.361 214.552 142.538 214.906 142.892C215.26 143.246 215.438 143.673 215.438 144.173C215.438 144.673 215.26 145.1 214.906 145.454C214.552 145.809 214.125 145.986 213.625 145.986ZM225.594 156.079H213.594C213.094 156.079 212.667 155.902 212.312 155.548C211.958 155.194 211.781 154.767 211.781 154.267C211.781 153.767 211.958 153.34 212.312 152.986C212.667 152.631 213.094 152.454 213.594 152.454H225.594C226.094 152.454 226.521 152.631 226.875 152.986C227.229 153.34 227.406 153.767 227.406 154.267C227.406 154.767 227.229 155.194 226.875 155.548C226.521 155.902 226.094 156.079 225.594 156.079ZM237.469 156.204C236.625 156.204 235.792 156.178 234.969 156.126C234.271 156.085 233.625 156.064 233.031 156.064C232.833 156.053 232.641 156.017 232.453 155.954C232.182 155.861 231.953 155.715 231.766 155.517C231.766 155.517 231.76 155.517 231.75 155.517C231.573 155.329 231.443 155.111 231.359 154.861C231.349 154.861 231.344 154.861 231.344 154.861C231.281 154.673 231.25 154.475 231.25 154.267L231.281 144.236C231.292 143.788 231.432 143.408 231.703 143.095C231.974 142.772 232.318 142.569 232.734 142.486C232.828 142.465 232.922 142.454 233.016 142.454C233.016 142.454 233.021 142.454 233.031 142.454C233.042 142.454 233.057 142.454 233.078 142.454C233.609 142.444 234.188 142.423 234.812 142.392C235.938 142.309 237.12 142.298 238.359 142.361C239.609 141.517 240.151 140.548 239.984 139.454C239.693 138.298 238.734 137.616 237.109 137.408H233.031C232.542 137.408 232.12 137.236 231.766 136.892C231.422 136.538 231.25 136.111 231.25 135.611C231.25 135.121 231.422 134.704 231.766 134.361C232.12 134.006 232.542 133.829 233.031 133.829H237.203C237.255 133.829 237.307 133.829 237.359 133.829C240.734 134.267 242.776 135.913 243.484 138.767C243.776 140.444 243.406 141.996 242.375 143.423C242.896 143.704 243.38 144.064 243.828 144.501C244.182 144.866 244.359 145.288 244.359 145.767C244.37 146.236 244.203 146.658 243.859 147.033C243.505 147.387 243.089 147.569 242.609 147.579C242.13 147.579 241.708 147.408 241.344 147.064C240.708 146.491 239.891 146.142 238.891 146.017C238.818 146.027 238.745 146.033 238.672 146.033H234.859L234.828 152.533C234.932 152.543 235.036 152.548 235.141 152.548C236.245 152.621 237.333 152.642 238.406 152.611C239.479 152.569 240.365 152.355 241.062 151.97C241.5 151.72 241.948 151.652 242.406 151.767C242.875 151.881 243.245 152.152 243.516 152.579C243.766 153.017 243.833 153.47 243.719 153.939C243.604 154.397 243.333 154.762 242.906 155.033C242.115 155.501 241.25 155.814 240.312 155.97C239.375 156.126 238.427 156.204 237.469 156.204ZM244.156 151.736C243.979 151.736 243.807 151.715 243.641 151.673C243.161 151.517 242.807 151.23 242.578 150.814C242.349 150.387 242.302 149.928 242.438 149.439C242.594 148.96 242.88 148.605 243.297 148.376C243.714 148.147 244.167 148.1 244.656 148.236C245.135 148.392 245.49 148.678 245.719 149.095C245.948 149.512 245.995 149.965 245.859 150.454V150.47C245.495 151.314 244.927 151.736 244.156 151.736Z" fill="white"/>
<defs>
<radialGradient id="paint0_radial_43_384" cx="0" cy="0" r="1" gradientUnits="userSpaceOnUse" gradientTransform="translate(69.5 3.82806) rotate(23.6389) scale(111.184 450.736)">
<stop stop-color="#0094FF"/>
<stop offset="1" stop-color="#8800FF"/>
</radialGradient>
</defs>
</svg>
